<svg width="18" height="20" viewBox="0 0 18 20" fill="none" xmlns="http://www.w3.org/2000/svg">
<g opacity="0.7">
<path d="M1 5C1 4.47 1.2107 3.961 1.5858 3.586C1.9609 3.211 2.4696 3 3 3H15C15.5304 3 16.0391 3.211 16.4142 3.586C16.7893 3.961 17 4.47 17 5V17C17 17.53 16.7893 18.039 16.4142 18.414C16.0391 18.789 15.5304 19 15 19H3C2.4696 19 1.9609 18.789 1.5858 18.414C1.2107 18.039 1 17.53 1 17V5Z" stroke="#0B1C33" stroke-width="2" stroke-linecap="round" stroke-linejoin="round"/>
<path d="M13 1V5" stroke="#0B1C33" stroke-width="2" stroke-linecap="round" stroke-linejoin="round"/>
<path d="M5 1V5" stroke="#0B1C33" stroke-width="2" stroke-linecap="round" stroke-linejoin="round"/>
<path d="M1 9H17" stroke="#0B1C33" stroke-width="2" stroke-linecap="round" stroke-linejoin="round"/>
<path d="M4 12H4.013" stroke="#0B1C33" stroke-width="2" stroke-linecap="round" stroke-linejoin="round"/>
<path d="M7.01001 12H7.01501" stroke="#0B1C33" stroke-width="2" stroke-linecap="round" stroke-linejoin="round"/>
<path d="M10.01 12H10.015" stroke="#0B1C33" stroke-width="2" stroke-linecap="round" stroke-linejoin="round"/>
<path d="M13.015 12H13.02" stroke="#0B1C33" stroke-width="2" stroke-linecap="round" stroke-linejoin="round"/>
<path d="M10.015 15H10.02" stroke="#0B1C33" stroke-width="2" stroke-linecap="round" stroke-linejoin="round"/>
<path d="M4.01001 15H4.01501" stroke="#0B1C33" stroke-width="2" stroke-linecap="round" stroke-linejoin="round"/>
<path d="M7.01001 15H7.01501" stroke="#0B1C33" stroke-width="2" stroke-linecap="round" stroke-linejoin="round"/>
</g>
</svg>
