<svg width="20" height="19" viewBox="0 0 20 19" fill="none" xmlns="http://www.w3.org/2000/svg">
<path d="M6 6H14" stroke="#0B1C33" stroke-width="2" stroke-linecap="round" stroke-linejoin="round"/>
<path d="M6 10H12" stroke="#0B1C33" stroke-width="2" stroke-linecap="round" stroke-linejoin="round"/>
<path d="M7 15H4C3.2044 15 2.4413 14.684 1.8787 14.121C1.3161 13.559 1 12.796 1 12V4C1 3.204 1.3161 2.44103 1.8787 1.87903C2.4413 1.31603 3.2044 1 4 1H16C16.7956 1 17.5587 1.31603 18.1213 1.87903C18.6839 2.44103 19 3.204 19 4V12C19 12.796 18.6839 13.559 18.1213 14.121C17.5587 14.684 16.7956 15 16 15H13L10 18L7 15Z" stroke="#0B1C33" stroke-width="2" stroke-linecap="round" stroke-linejoin="round"/>
</svg>
