<svg width="16" height="20" viewBox="0 0 16 20" fill="none" xmlns="http://www.w3.org/2000/svg">
<path d="M10 1V5C10 5.265 10.1054 5.51997 10.2929 5.70697C10.4804 5.89497 10.7348 6 11 6H15" stroke="#0B1C33" stroke-width="2" stroke-linecap="round" stroke-linejoin="round"/>
<path d="M13 19H3C2.4696 19 1.9609 18.789 1.5858 18.414C1.2107 18.039 1 17.53 1 17V3C1 2.47 1.2107 1.961 1.5858 1.586C1.9609 1.211 2.4696 1 3 1H10L15 6V17C15 17.53 14.7893 18.039 14.4142 18.414C14.0391 18.789 13.5304 19 13 19Z" stroke="#0B1C33" stroke-width="2" stroke-linecap="round" stroke-linejoin="round"/>
<path d="M5 7H6" stroke="#0B1C33" stroke-width="2" stroke-linecap="round" stroke-linejoin="round"/>
<path d="M5 11H11" stroke="#0B1C33" stroke-width="2" stroke-linecap="round" stroke-linejoin="round"/>
<path d="M5 15H11" stroke="#0B1C33" stroke-width="2" stroke-linecap="round" stroke-linejoin="round"/>
</svg>
