<svg width="24" height="24" viewBox="0 0 24 24" fill="none" xmlns="http://www.w3.org/2000/svg">
<mask id="mask0_2184_764" style="mask-type:luminance" maskUnits="userSpaceOnUse" x="0" y="0" width="24" height="24">
<path d="M24 0H0V24H24V0Z" fill="white"/>
</mask>
<g mask="url(#mask0_2184_764)">
<path d="M12 12C13.995 9.04 12 5 11 4C11 7.038 9.227 8.741 8 10C6.774 11.26 6 13.24 6 15C6 16.591 6.63202 18.117 7.75702 19.243C8.88302 20.368 10.409 21 12 21C13.595 21 15.115 20.368 16.245 19.243C17.365 18.117 17.995 16.591 17.995 15C17.995 13.468 16.945 11.06 15.995 10C14.215 13 13.205 13 12 12Z" stroke="#0B1C33" stroke-width="2" stroke-linecap="round" stroke-linejoin="round"/>
</g>
</svg>
