<svg width="18" height="18" viewBox="0 0 18 18" fill="none" xmlns="http://www.w3.org/2000/svg">
<path d="M1 5V3C1 2.47 1.2107 1.961 1.5858 1.586C1.9609 1.211 2.4696 1 3 1H5" stroke="#0B1C33" stroke-width="2" stroke-linecap="round" stroke-linejoin="round"/>
<path d="M1 13V15C1 15.53 1.2107 16.039 1.5858 16.414C1.9609 16.789 2.4696 17 3 17H5" stroke="#0B1C33" stroke-width="2" stroke-linecap="round" stroke-linejoin="round"/>
<path d="M13 1H15C15.5304 1 16.0391 1.211 16.4142 1.586C16.7893 1.961 17 2.47 17 3V5" stroke="#0B1C33" stroke-width="2" stroke-linecap="round" stroke-linejoin="round"/>
<path d="M13 17H15C15.5304 17 16.0391 16.789 16.4142 16.414C16.7893 16.039 17 15.53 17 15V13" stroke="#0B1C33" stroke-width="2" stroke-linecap="round" stroke-linejoin="round"/>
<path d="M5.60299 6.60999C5.79289 6.41599 6.01949 6.26299 6.26949 6.15799C6.51949 6.05299 6.78789 5.99899 7.05899 5.99899C7.33009 5.99899 7.59849 6.05299 7.84849 6.15799C8.09849 6.26299 8.32509 6.41599 8.51499 6.60999L8.99999 7L9.49999 6.604C9.68979 6.413 9.91569 6.26101 10.1646 6.15701C10.4135 6.05401 10.6804 6.00101 10.95 6.00201C11.2195 6.00301 11.4862 6.05701 11.7346 6.16101C11.983 6.26601 12.2082 6.41899 12.397 6.61099C12.7835 7.00399 13.0001 7.534 13.0001 8.086C13.0001 8.637 12.7835 9.167 12.397 9.56L8.99999 13L5.60299 9.56C5.21619 9.167 4.99939 8.63699 4.99939 8.08499C4.99939 7.53299 5.21619 7.00299 5.60299 6.60999Z" stroke="#0B1C33" stroke-width="2" stroke-linecap="round" stroke-linejoin="round"/>
</svg>
