<svg width="24" height="24" viewBox="0 0 24 24" fill="none" xmlns="http://www.w3.org/2000/svg">
<mask id="mask0_2184_734" style="mask-type:luminance" maskUnits="userSpaceOnUse" x="0" y="0" width="24" height="24">
<path d="M24 0H0V24H24V0Z" fill="white"/>
</mask>
<g mask="url(#mask0_2184_734)">
<path d="M13 19L12 20L4.5 12.572C4.005 12.091 3.61599 11.512 3.35599 10.873C3.09499 10.233 2.97102 9.547 2.98902 8.857C3.00702 8.167 3.168 7.48798 3.461 6.86298C3.755 6.23898 4.174 5.68099 4.693 5.22699C5.213 4.77199 5.82101 4.43001 6.47901 4.22101C7.13701 4.01301 7.831 3.94403 8.517 4.01703C9.204 4.09003 9.86701 4.30498 10.467 4.64698C11.066 4.98898 11.588 5.45198 12 6.00598C12.795 4.94498 13.98 4.243 15.292 4.055C16.605 3.867 17.939 4.20799 19 5.00299C20.061 5.79799 20.763 6.98299 20.951 8.29499C21.139 9.60799 20.798 10.942 20.003 12.003" stroke="#FEFEFE" stroke-width="2" stroke-linecap="round" stroke-linejoin="round"/>
<path d="M19 16L17 19H21L19 22" stroke="#FEFEFE" stroke-width="2" stroke-linecap="round" stroke-linejoin="round"/>
</g>
</svg>
