<svg width="20" height="18" viewBox="0 0 20 18" fill="none" xmlns="http://www.w3.org/2000/svg">
<path d="M12.6999 10.5001C11.5999 8.50009 11.2589 8.00009 9.99989 8.00009C8.74089 8.00009 8.26389 8.75509 7.16389 10.7471C6.22189 12.4501 4.31789 12.5921 3.84289 14.0381C3.74589 14.3031 3.69789 14.7151 3.69989 15.0001C3.69989 16.1761 4.48689 17.0001 5.49989 17.0001C6.75889 17.0001 8.49989 16.0001 9.99989 16.0001C11.4999 16.0001 13.2409 17.0001 14.4999 17.0001C15.5129 17.0001 16.2999 16.1771 16.2999 15.0001C16.2999 14.7151 16.2509 14.3031 16.1539 14.0381C15.6789 12.5871 13.6419 12.2031 12.6999 10.5001Z" stroke="#0B1C33" stroke-width="2" stroke-linecap="round" stroke-linejoin="round"/>
<path d="M18.1879 5.08209C18.0594 5.02809 17.9214 5.00009 17.7819 5.00009H17.7669C17.0319 5.01209 16.2069 5.75009 15.7739 6.86609C15.2549 8.20109 15.4939 9.56609 16.3119 9.91809C16.4409 9.97309 16.5789 10.0001 16.7179 10.0001C17.4569 10.0001 18.2929 9.25809 18.7289 8.13409C19.2449 6.79909 19.0009 5.43409 18.1879 5.08209Z" stroke="#0B1C33" stroke-width="2" stroke-linecap="round" stroke-linejoin="round"/>
<path d="M7.47389 6.00009C7.52889 6.00009 7.58289 6.00009 7.63689 5.98909C8.58089 5.86109 9.16989 4.64309 8.95689 3.26709C8.75389 1.97009 7.90989 1.00009 7.02489 1.00009C6.96989 1.00009 6.91589 1.00009 6.86189 1.01109C5.91789 1.13909 5.32889 2.35709 5.54189 3.73309C5.74589 5.02609 6.58889 6.00009 7.47389 6.00009Z" stroke="#0B1C33" stroke-width="2" stroke-linecap="round" stroke-linejoin="round"/>
<path d="M14.4559 3.73309C14.6699 2.35709 14.0809 1.13909 13.1359 1.01109C13.0822 1.00409 13.0281 1.00009 12.9739 1.00009C12.0889 1.00009 11.2459 1.97009 11.0439 3.26709C10.8299 4.64309 11.4189 5.86109 12.3639 5.98909C12.4179 5.99609 12.4719 6.00009 12.5259 6.00009C13.4109 6.00009 14.2559 5.02609 14.4559 3.73309Z" stroke="#0B1C33" stroke-width="2" stroke-linecap="round" stroke-linejoin="round"/>
<path d="M3.68988 9.91809C4.50588 9.56609 4.74389 8.19909 4.22589 6.86609C3.78989 5.74209 2.95488 5.00009 2.21688 5.00009C2.07688 5.00009 1.93989 5.02709 1.80989 5.08209C0.993887 5.43409 0.755884 6.80109 1.27388 8.13409C1.70988 9.25809 2.54489 10.0001 3.28289 10.0001C3.42289 10.0001 3.55988 9.97309 3.68988 9.91809Z" stroke="#0B1C33" stroke-width="2" stroke-linecap="round" stroke-linejoin="round"/>
</svg>
