<svg width="20" height="22" viewBox="0 0 20 22" fill="none" xmlns="http://www.w3.org/2000/svg">
<path d="M17.875 5.27002C18.2187 5.46502 18.5041 5.749 18.7018 6.091C18.8995 6.434 19.0025 6.82302 19 7.21802V14.502C19 15.311 18.557 16.057 17.842 16.45L11.092 20.72C10.7574 20.904 10.3818 21 10 21C9.6182 21 9.2426 20.904 8.908 20.72L2.158 16.45C1.8082 16.259 1.5161 15.977 1.3124 15.634C1.1087 15.292 1.0008 14.901 1 14.502V7.21698C1 6.40798 1.443 5.66302 2.158 5.27002L8.908 1.28998C9.2525 1.09998 9.6396 1 10.033 1C10.4264 1 10.8135 1.09998 11.158 1.28998L17.908 5.27002H17.875Z" stroke="#0B1C33" stroke-width="2" stroke-linecap="round" stroke-linejoin="round"/>
<path d="M7 11C7 11.796 7.3161 12.559 7.8787 13.121C8.4413 13.684 9.2044 14 10 14C10.7956 14 11.5587 13.684 12.1213 13.121C12.6839 12.559 13 11.796 13 11C13 10.204 12.6839 9.44103 12.1213 8.87903C11.5587 8.31603 10.7956 8 10 8C9.2044 8 8.4413 8.31603 7.8787 8.87903C7.3161 9.44103 7 10.204 7 11Z" stroke="#0B1C33" stroke-width="2" stroke-linecap="round" stroke-linejoin="round"/>
</svg>
